PathFileType	4	(X/Y/Z)	C:\Users\italobelli\Desktop\GitHub\PTbot_officialCBL\Personal_Results\SHRUG01_noisy1.trc
DataRate	CameraRate	NumFrames	NumMarkers	Units	OrigDataRate	OrigDataStartFrame	OrigNumFrames
110.888889	110.888889	38	9	m	110.888889	251	500
Frame#	Time		gu		centelbow		EpL		centpxt8		centijc7		ij		ts		aa		ai
			X1	Y1	Z1	X2	Y2	Z2	X3	Y3	Z3	X4	Y4	Z4	X5	Y5	Z5	X6	Y6	Z6	X7	Y7	Z7	X8	Y8	Z8	X9	Y9	Z9

251	2.2545	-0.076465	0.00601	0.1677	-0.09372	-0.2306	0.21225	-0.07039	-0.22419	0.23354	-0.046816	-0.15316	-0.008669	-0.046816	0.031938	-0.008669	0	0	0	-0.13758	0.040472	0.052212	-0.10221	0.046319	0.16587	-0.16146	-0.068577	0.071993
252	2.2635	-0.07665	0.0049122	0.16776	-0.093996	-0.23186	0.2119	-0.070617	-0.22551	0.23315	-0.046816	-0.15316	-0.008669	-0.046816	0.031938	-0.008669	0	0	0	-0.13773	0.039889	0.052523	-0.10243	0.045202	0.16623	-0.16159	-0.069264	0.071744
253	2.2725	-0.076831	0.0038277	0.16782	-0.094269	-0.23311	0.21155	-0.070843	-0.22681	0.23277	-0.046816	-0.15316	-0.008669	-0.046816	0.031938	-0.008669	0	0	0	-0.13789	0.03931	0.052832	-0.10264	0.044098	0.16658	-0.16171	-0.069945	0.071498
254	2.2816	-0.077011	0.0027586	0.16787	-0.094538	-0.23434	0.2112	-0.071066	-0.2281	0.2324	-0.046816	-0.15316	-0.008669	-0.046816	0.031938	-0.008669	0	0	0	-0.13804	0.038738	0.053139	-0.10286	0.043009	0.16692	-0.16184	-0.070617	0.071254
255	2.2906	-0.077187	0.0017068	0.16793	-0.094804	-0.23555	0.21086	-0.071286	-0.22937	0.23203	-0.046816	-0.15316	-0.008669	-0.046816	0.031938	-0.008669	0	0	0	-0.13819	0.038173	0.053442	-0.10307	0.041936	0.16726	-0.16196	-0.07128	0.071014
256	2.2996	-0.07736	0.00067436	0.16798	-0.095066	-0.23673	0.21053	-0.071504	-0.23062	0.23166	-0.046816	-0.15316	-0.008669	-0.046816	0.031938	-0.008669	0	0	0	-0.13833	0.037616	0.053741	-0.10327	0.040882	0.1676	-0.16208	-0.071932	0.070776
257	2.3086	-0.07753	-0.00033673	0.16803	-0.095323	-0.2379	0.21019	-0.071719	-0.23184	0.2313	-0.046816	-0.15316	-0.008669	-0.046816	0.031938	-0.008669	0	0	0	-0.13847	0.03707	0.054036	-0.10347	0.039848	0.16792	-0.16219	-0.072571	0.070541
258	2.3176	-0.077696	-0.0013244	0.16807	-0.095575	-0.23904	0.20987	-0.07193	-0.23304	0.23095	-0.046816	-0.15316	-0.008669	-0.046816	0.031938	-0.008669	0	0	0	-0.13861	0.036535	0.054324	-0.10367	0.038837	0.16824	-0.1623	-0.073196	0.07031
259	2.3267	-0.077859	-0.0022868	0.16812	-0.095823	-0.24015	0.20955	-0.072139	-0.2342	0.2306	-0.046816	-0.15316	-0.008669	-0.046816	0.031938	-0.008669	0	0	0	-0.13875	0.036012	0.054607	-0.10386	0.037852	0.16855	-0.16241	-0.073806	0.070082
260	2.3357	-0.078017	-0.0032218	0.16816	-0.096065	-0.24123	0.20923	-0.072344	-0.23534	0.23026	-0.046816	-0.15316	-0.008669	-0.046816	0.031938	-0.008669	0	0	0	-0.13888	0.035503	0.054881	-0.10405	0.036893	0.16886	-0.16252	-0.074399	0.069858
261	2.3447	-0.078171	-0.0041274	0.1682	-0.096302	-0.24227	0.20892	-0.072545	-0.23644	0.22993	-0.046816	-0.15316	-0.008669	-0.046816	0.031938	-0.008669	0	0	0	-0.13901	0.035008	0.055148	-0.10423	0.035963	0.16915	-0.16262	-0.074974	0.069638
262	2.3537	-0.078321	-0.0050016	0.16824	-0.096533	-0.24329	0.20861	-0.072743	-0.2375	0.2296	-0.046816	-0.15316	-0.008669	-0.046816	0.031938	-0.008669	0	0	0	-0.13913	0.03453	0.055406	-0.10441	0.035064	0.16943	-0.16271	-0.07553	0.069421
263	2.3627	-0.078466	-0.0058423	0.16827	-0.096758	-0.24426	0.20831	-0.072936	-0.23853	0.22928	-0.046816	-0.15316	-0.008669	-0.046816	0.031938	-0.008669	0	0	0	-0.13925	0.03407	0.055655	-0.10458	0.034198	0.1697	-0.1628	-0.076065	0.069209
264	2.3717	-0.078606	-0.0066477	0.1683	-0.096976	-0.2452	0.20801	-0.073126	-0.23952	0.22896	-0.046816	-0.15316	-0.008669	-0.046816	0.031938	-0.008669	0	0	0	-0.13936	0.033627	0.055893	-0.10474	0.033367	0.16996	-0.16289	-0.076578	0.069001
265	2.3808	-0.078741	-0.0074157	0.16833	-0.097188	-0.2461	0.20772	-0.073311	-0.24046	0.22866	-0.046816	-0.15316	-0.008669	-0.046816	0.031938	-0.008669	0	0	0	-0.13947	0.033205	0.056119	-0.1049	0.032573	0.17021	-0.16297	-0.077067	0.068798
266	2.3898	-0.07887	-0.0081443	0.16836	-0.097393	-0.24695	0.20744	-0.073492	-0.24136	0.22836	-0.046816	-0.15316	-0.008669	-0.046816	0.031938	-0.008669	0	0	0	-0.13957	0.032804	0.056334	-0.10506	0.031819	0.17045	-0.16305	-0.077532	0.0686
267	2.3988	-0.078994	-0.0088314	0.16838	-0.09759	-0.24776	0.20716	-0.073668	-0.24221	0.22807	-0.046816	-0.15316	-0.008669	-0.046816	0.031938	-0.008669	0	0	0	-0.13967	0.032425	0.056536	-0.1052	0.031105	0.17066	-0.16312	-0.07797	0.068406
268	2.4078	-0.079111	-0.0094751	0.1684	-0.09778	-0.24852	0.20689	-0.073839	-0.24302	0.22779	-0.046816	-0.15316	-0.008669	-0.046816	0.031938	-0.008669	0	0	0	-0.13976	0.03207	0.056724	-0.10534	0.030435	0.17087	-0.16319	-0.07838	0.068217
269	2.4168	-0.079223	-0.010073	0.16841	-0.097963	-0.24924	0.20662	-0.074005	-0.24377	0.22752	-0.046816	-0.15316	-0.008669	-0.046816	0.031938	-0.008669	0	0	0	-0.13984	0.031739	0.056898	-0.10547	0.02981	0.17106	-0.16325	-0.078762	0.068034
270	2.4259	-0.079329	-0.010624	0.16843	-0.098137	-0.2499	0.20637	-0.074166	-0.24447	0.22725	-0.046816	-0.15316	-0.008669	-0.046816	0.031938	-0.008669	0	0	0	-0.13992	0.031435	0.057057	-0.10559	0.029233	0.17123	-0.1633	-0.079113	0.067856
271	2.4349	-0.079427	-0.011126	0.16843	-0.098302	-0.2505	0.20612	-0.074322	-0.24511	0.227	-0.046816	-0.15316	-0.008669	-0.046816	0.031938	-0.008669	0	0	0	-0.13999	0.031158	0.057199	-0.1057	0.028705	0.17139	-0.16335	-0.079432	0.067683
272	2.4439	-0.079519	-0.011575	0.16844	-0.09846	-0.25105	0.20587	-0.074473	-0.2457	0.22675	-0.046816	-0.15316	-0.008669	-0.046816	0.031938	-0.008669	0	0	0	-0.14006	0.03091	0.057325	-0.10581	0.028228	0.17153	-0.1634	-0.079718	0.067516
273	2.4529	-0.079604	-0.011972	0.16844	-0.098608	-0.25155	0.20563	-0.074617	-0.24622	0.22652	-0.046816	-0.15316	-0.008669	-0.046816	0.031938	-0.008669	0	0	0	-0.14011	0.030691	0.057433	-0.1059	0.027805	0.17165	-0.16344	-0.079969	0.067355
274	2.4619	-0.079682	-0.012313	0.16844	-0.098747	-0.25198	0.2054	-0.074756	-0.24669	0.22629	-0.046816	-0.15316	-0.008669	-0.046816	0.031938	-0.008669	0	0	0	-0.14016	0.030503	0.057523	-0.10599	0.027437	0.17175	-0.16347	-0.080185	0.0672
275	2.4709	-0.079752	-0.012596	0.16844	-0.098876	-0.25235	0.20518	-0.074889	-0.24708	0.22608	-0.046816	-0.15316	-0.008669	-0.046816	0.031938	-0.008669	0	0	0	-0.1402	0.030348	0.057594	-0.10607	0.027127	0.17183	-0.16349	-0.080363	0.067052
276	2.48	-0.079814	-0.01282	0.16843	-0.098996	-0.25265	0.20497	-0.075016	-0.24741	0.22587	-0.046816	-0.15316	-0.008669	-0.046816	0.031938	-0.008669	0	0	0	-0.14023	0.030226	0.057644	-0.10614	0.026877	0.17189	-0.16351	-0.080502	0.066909
277	2.489	-0.079869	-0.012983	0.16841	-0.099105	-0.25289	0.20476	-0.075136	-0.24768	0.22568	-0.046816	-0.15316	-0.008669	-0.046816	0.031938	-0.008669	0	0	0	-0.14025	0.030139	0.057674	-0.10619	0.026688	0.17192	-0.16352	-0.080601	0.066774
278	2.498	-0.079915	-0.013082	0.16839	-0.099204	-0.25306	0.20456	-0.07525	-0.24787	0.2255	-0.046816	-0.15316	-0.008669	-0.046816	0.031938	-0.008669	0	0	0	-0.14027	0.030087	0.057682	-0.10624	0.026563	0.17194	-0.16353	-0.080659	0.066645
279	2.507	-0.079953	-0.013135	0.16837	-0.099296	-0.25318	0.20437	-0.075358	-0.24801	0.22533	-0.046816	-0.15316	-0.008669	-0.046816	0.031938	-0.008669	0	0	0	-0.14027	0.030062	0.057673	-0.10628	0.026484	0.17194	-0.16353	-0.080687	0.066521
280	2.516	-0.079985	-0.013186	0.16835	-0.099385	-0.25329	0.20418	-0.075466	-0.24814	0.22515	-0.046816	-0.15316	-0.008669	-0.046816	0.031938	-0.008669	0	0	0	-0.14028	0.030038	0.05766	-0.10631	0.026407	0.17193	-0.16353	-0.080713	0.066397
281	2.5251	-0.080012	-0.013236	0.16832	-0.099472	-0.2534	0.20399	-0.075572	-0.24827	0.22498	-0.046816	-0.15316	-0.008669	-0.046816	0.031938	-0.008669	0	0	0	-0.14028	0.030015	0.057641	-0.10635	0.026332	0.17192	-0.16352	-0.080739	0.066275
282	2.5341	-0.080032	-0.013285	0.16828	-0.099557	-0.25351	0.2038	-0.075677	-0.24839	0.22481	-0.046816	-0.15316	-0.008669	-0.046816	0.031938	-0.008669	0	0	0	-0.14028	0.029992	0.057619	-0.10637	0.026258	0.1719	-0.16352	-0.080764	0.066153
283	2.5431	-0.080047	-0.013333	0.16824	-0.09964	-0.25361	0.20361	-0.075781	-0.24851	0.22465	-0.046816	-0.15316	-0.008669	-0.046816	0.031938	-0.008669	0	0	0	-0.14027	0.029969	0.057592	-0.1064	0.026185	0.17188	-0.16351	-0.080789	0.066031
284	2.5521	-0.080057	-0.013381	0.1682	-0.099722	-0.25371	0.20342	-0.075884	-0.24863	0.22448	-0.046816	-0.15316	-0.008669	-0.046816	0.031938	-0.008669	0	0	0	-0.14026	0.029947	0.057561	-0.10642	0.026114	0.17186	-0.1635	-0.080813	0.065911
285	2.5611	-0.080061	-0.013427	0.16816	-0.099802	-0.2538	0.20323	-0.075985	-0.24874	0.22431	-0.046816	-0.15316	-0.008669	-0.046816	0.031938	-0.008669	0	0	0	-0.14025	0.029926	0.057526	-0.10644	0.026043	0.17183	-0.16348	-0.080837	0.065791
286	2.5701	-0.080061	-0.013473	0.16811	-0.09988	-0.25389	0.20304	-0.076085	-0.24885	0.22415	-0.046816	-0.15316	-0.008669	-0.046816	0.031938	-0.008669	0	0	0	-0.14024	0.029904	0.057488	-0.10646	0.025974	0.1718	-0.16347	-0.08086	0.065672
287	2.5792	-0.080056	-0.013517	0.16806	-0.099956	-0.25397	0.20285	-0.076184	-0.24895	0.22399	-0.046816	-0.15316	-0.008669	-0.046816	0.031938	-0.008669	0	0	0	-0.14022	0.029884	0.057446	-0.10647	0.025907	0.17176	-0.16346	-0.080882	0.065553
288	2.5882	-0.080047	-0.013561	0.168	-0.10003	-0.25406	0.20267	-0.076282	-0.24905	0.22383	-0.046816	-0.15316	-0.008669	-0.046816	0.031938	-0.008669	0	0	0	-0.1402	0.029864	0.0574	-0.10648	0.02584	0.17172	-0.16344	-0.080904	0.065436
